<?xml version="1.0" encoding="utf-8"?>
<!-- Generator: Adobe Illustrator 22.1.0, SVG Export Plug-In . SVG Version: 6.00 Build 0)  -->
<svg version="1.1" id="ëÎÓÈ_1" xmlns="http://www.w3.org/2000/svg" xmlns:xlink="http://www.w3.org/1999/xlink" x="0px" y="0px"
	 viewBox="0 0 5500 3176.8" style="enable-background:new 0 0 5500 3176.8;" xml:space="preserve">
<style type="text/css">
	.st0{fill:#002169;}
	.st1{fill:#E8E2D8;}
	.st2{fill:#312549;}
	.st3{fill:#FCCC55;}
	.st4{fill:#CF803E;}
	.st5{fill:#5B7881;}
	.st6{fill:#571B2B;}
	.st7{fill:#B9743E;}
	.st8{fill:#8E5129;}
	.st9{fill:#EE663E;}
	.st10{fill:#FFFFFF;}
</style>
<g>
	<path class="st0" d="M180,490l44.2,98.6l193.6-60l99.3,114.1l-19.9,168.8l-94.4,203.7l223.5,382.5L815,1507l109.3,34.8l54.7,99.4
		l99.4,24.9l-34.8,248.4l129.2,268.3l94.4,69.5l19.9,352.7l59.6,268.3l99.4,104.3l322.8,142.9l-288-242.3l14.9-178.8l149-198.7
		l34.8-129.2l119.2-64.6l29.8-168.9l74.5-99.4l-14.9-94.4l-173.9-44.7l-119.2-89.5l-44.7-99.4l-79.5-13l-104.3-92.5h-99.4
		l-104.3-12.6l-39.7,39.2l-104.3-25.1l-34.8-94.5l-44.7-139.2l-99.4-188.8l173.9-5l59.6,89.5l29.8-34.8l24.9-94.4l119.2-168.9
		l178.8-79.5l129.2-29.8l39.7-114.2l89.2-15.1l19.9-64.6L1605,563l-119.3-44.7l-89.5,104.3l-74.5,84.4l-64.6-24.9l-79.5-64.6
		c0,0,0-119.2,14.9-114.2c14.9,5,193.8-49.6,193.8-49.6L1366.4,351l-154,61.3h-177.2l-225.2-47l-203.7-15.3l-243.4,14.6L180,490z"/>
</g>
<g>
	<polygon class="st0" points="2482.8,1064.5 2389.1,1154 2404.4,1218.7 2275.4,1352.9 2255.6,1506.8 2399.7,1720.5 2623.3,1695.6 
		2702.8,1735.4 2777.3,1844.6 2822,1973.8 2851.8,2112.9 2827,2232.2 2891.6,2445.8 2931.3,2570 3080.4,2560 3219.5,2351.4 
		3249.3,2262 3298.9,2202.4 3358.6,2152.7 3333.7,1968.9 3413.2,1814.8 3502.6,1735.4 3562.3,1576.5 3428.1,1596.3 3328.8,1511.9 
		3204.5,1228.6 3239.3,1218.7 3428.1,1536.6 3567.2,1492 3696.4,1352.9 3636.8,1288.3 3577.1,1313.1 3458,1184 3512.5,1169.1 
		3607,1223.7 3666.6,1268.4 3840.5,1293.2 3949.7,1328 3974.6,1452.2 4074,1651 4128.6,1496.9 4227.9,1362.8 4307.5,1357.8 
		4347.2,1496.9 4421.7,1472 4575.8,1621.1 4670.1,1566.5 4595.6,1422.4 4625.4,1362.8 4769.4,1313.1 4843.9,1184 4704.8,980.3 
		4769.4,965.4 4834,990.2 4908.5,1089.5 4943.3,1039.9 4868.8,955.4 4888.7,890.8 4953.3,885.8 4928.5,712 4804.2,667.3 4819.2,548 
		4968.2,587.9 5012.9,523.3 5112.2,498.4 5101.7,607.7 5225.3,716.9 5225.3,609.2 5176.1,543.1 5300.6,493.4 5246.1,443.7 
		5355.6,463.6 5375.4,408.9 5027.8,374.2 4829.1,369.2 4799.3,294.7 4600.5,314.6 4391.9,324.5 4337.3,284.8 4034.2,309.6 
		4123.6,250 3939.8,225.2 3686.5,309.6 3577.1,369.2 3487.8,359.3 3159.9,493.4 3110.2,418.9 3219.5,428.8 3244.4,374.2 
		2966.1,344.3 2707.8,483.5 2717.7,597.8 2787.3,577.8 2820,642.4 2892.3,592.8 2892.3,503.2 2951.2,439.1 3009.2,439.1 
		2971.1,588.1 2851.8,687.3 2737.6,672.4 2678,722 2553.7,776.6 2568.7,875.9 2464.4,900.8 2424.7,1030 2558.8,1000.2 2658.1,900.8 
		2757.4,871 2802.2,925.6 2861.8,955.4 2892.2,1045.3 2903.3,974.7 2927.5,987.9 2929.8,961.3 2834.8,886.3 2843.7,844.3 
		2912.1,888.5 2958.4,926 2947.6,963.6 3016.1,1036.5 3016.1,947 3062.1,945.9 3085.4,899.5 3143.4,822.2 3205.5,851 3278.5,862.1 
		3329.3,890.7 3322.7,939.2 3223.4,930.4 3155,923.9 3088.8,952.5 3082.1,1010 3127.1,1085 3220.7,1040.9 3220.7,1162.3 
		3129.6,1157.9 3011,1120.3 2964.8,1130.2 2956.3,1173.3 2916.5,1173.3 2861.3,1130.6 2781.9,1121 2766.4,1083.2 2746.4,1032.2 
		2622.9,1045.4 2565.5,1078.4 	"/>
</g>
<g>
	<polygon class="st0" points="4699.9,2560 4724.8,2341.5 4893.7,2257 5007.9,2147.7 5067.5,2142.7 5142,2083.1 5201.7,2093.1 
		5261.3,2182.5 5365.6,2207.3 5420.2,2361.3 5375.6,2520.3 5231.5,2679.3 5102.3,2669.3 5067.5,2584.9 4953.3,2530.2 4863.9,2550.1 
		4754.6,2589.8 	"/>
</g>
<g>
	<path class="st1" d="M342.2,853.3c164.4,0,297.7,133.3,297.7,297.7c0,164.4-133.3,297.7-297.7,297.7S44.6,1315.4,44.6,1151
		C44.7,986.6,177.8,853.3,342.2,853.3z"/>
</g>
<g>
	<path class="st1" d="M1234.6,2336l-1.7-17.7l29.5-2.9l1.7,17.7L1234.6,2336z M1308.3,2328.8l-1.7-17.7l29.5-2.9l1.7,17.7
		L1308.3,2328.8z M1381.9,2321.5l-1.7-17.7l29.5-2.9l1.7,17.7L1381.9,2321.5z M1455.5,2314.1l-1.7-17.7l29.5-2.9l1.7,17.7
		L1455.5,2314.1z M1529.2,2306.9l-1.7-17.7l29.5-2.9l1.7,17.7L1529.2,2306.9z M1602.8,2299.6l-1.7-17.7l29.5-2.9l1.7,17.7
		L1602.8,2299.6z M1676.5,2292.3l-1.7-17.7l29.5-2.9l1.7,17.7L1676.5,2292.3z M1750.2,2285.1l-1.7-17.7l29.5-2.9l1.7,17.7
		L1750.2,2285.1z M1823.8,2277.8l-1.7-17.7l29.5-2.9l1.7,17.7L1823.8,2277.8z M1897.5,2270.4l-1.7-17.7l29.5-2.9l1.7,17.7
		L1897.5,2270.4z M1971.1,2263.2l-1.7-17.7l29.5-2.9l1.7,17.7L1971.1,2263.2z M2044.7,2255.9l-1.7-17.7l29.5-2.9l1.7,17.7
		L2044.7,2255.9z M2118.5,2248.6l-1.7-17.7l29.5-2.9l1.7,17.7L2118.5,2248.6z M2192.1,2241.4l-1.7-17.7l29.5-2.9l1.7,17.7
		L2192.1,2241.4z M2265.8,2234l-1.7-17.7l29.5-2.9l1.7,17.7L2265.8,2234z M2339.4,2226.7l-1.7-17.7l29.5-2.9l1.7,17.7L2339.4,2226.7
		z M2413,2219.4l-1.7-17.7l29.5-2.9l1.7,17.7L2413,2219.4z M2486.7,2212.2l-1.7-17.7l29.5-2.9l1.7,17.7L2486.7,2212.2z
		 M2560.4,2204.9l-1.7-17.7l29.5-2.9l1.7,17.7L2560.4,2204.9z M2634.1,2197.5l-1.7-17.7l29.5-2.9l1.7,17.7L2634.1,2197.5z
		 M2707.7,2190.3l-1.7-17.7l29.5-2.9l1.7,17.7L2707.7,2190.3z M2781.3,2183l-1.7-17.7l29.5-2.9l1.7,17.7L2781.3,2183z M2855,2175.7
		l-1.7-17.7l29.5-2.9l1.7,17.7L2855,2175.7z M2928.6,2168.5l-1.7-17.7l29.5-2.9l1.7,17.7L2928.6,2168.5z M3002.4,2161.2l-1.7-17.7
		l29.5-2.9l1.7,17.7L3002.4,2161.2z M3076,2153.8l-1.7-17.7l29.5-2.9l1.7,17.7L3076,2153.8z M3149.6,2146.6l-1.7-17.7l29.5-2.9
		l1.7,17.7L3149.6,2146.6z M3223.3,2139.3l-1.7-17.7l25.3-2.5l1.7,17.7L3223.3,2139.3z"/>
</g>
<g>
	<path class="st1" d="M942.9,2175.5l-14.5-26.1l15.5-8.6l14.5,26.1L942.9,2175.5z M906.6,2110.3l-14.4-25.9l15.5-8.6l14.4,25.9
		L906.6,2110.3z M870.4,2045.4l-14.4-25.9l15.5-8.6l14.4,25.9L870.4,2045.4z M834.3,1980.6l-14.4-25.9l15.5-8.6l14.4,25.9
		L834.3,1980.6z M798.3,1915.7l-14.4-25.9l15.5-8.6l14.4,25.9L798.3,1915.7z M762.2,1850.9l-14.4-25.9l15.5-8.6l14.4,25.9
		L762.2,1850.9z M726.1,1786l-14.4-25.9l15.5-8.6l14.4,25.9L726.1,1786z M690.2,1721.2l-14.4-26.1l15.5-8.6l14.4,26.1L690.2,1721.2z
		 M654.2,1656.2l-14.3-25.9l15.5-8.6l14.3,25.9L654.2,1656.2z M618.3,1591.3l-14.3-25.9l15.5-8.6l14.3,25.9L618.3,1591.3z
		 M582.4,1526.4l-14.3-25.9l15.5-8.6l14.3,25.9L582.4,1526.4z M546.6,1461.4l-14.3-26.1l15.6-8.5l14.3,25.9L546.6,1461.4z
		 M510.8,1396.4c-5-8.9-9.7-17.7-14.3-26.1l15.6-8.5c4.6,8.4,9.4,17.1,14.2,26.1L510.8,1396.4z M475.2,1331.1
		c-5.1-9.4-9.8-18.1-14.2-26.2l15.6-8.4c4.4,8.1,9.2,16.8,14.2,26.2L475.2,1331.1z M439.9,1265.6c-12.7-23.9-13.6-26.7-14-28.1
		l16.9-5.6l-8.4,2.8l8.4-2.8c0.2,0.8,2,4.7,12.9,25.4L439.9,1265.6z"/>
</g>
<g>
	<path class="st1" d="M545.2,977.6l-0.9-17.8l0.4,8.8l-0.4-8.8c0.9,0,5.5-0.5,28.6-4.2l2.8,17.5
		C552.2,976.8,547.1,977.5,545.2,977.6z M620,965.9l-2.9-17.5c9-1.5,18.8-3.1,29.3-4.8l2.9,17.5C638.9,962.9,629.2,964.5,620,965.9z
		 M693.4,953.9l-2.9-17.5l29.3-4.8l2.9,17.5L693.4,953.9z M766.6,941.6l-2.9-17.5l29.3-5l2.9,17.5L766.6,941.6z M839.8,929.2
		l-2.9-17.5l29.3-5l3,17.5L839.8,929.2z M912.9,916.9l-3-17.5l29.3-5l3,17.5L912.9,916.9z M986.1,904.5l-3-17.5l29.3-5l3,17.5
		L986.1,904.5z M1059.2,892l-3-17.5l29.2-5l3,17.5L1059.2,892z M1132.2,879.6l-3-17.5l29.3-5l3,17.5L1132.2,879.6z M1205.3,867.1
		l-3-17.5l29.3-5l3,17.5L1205.3,867.1z M1278.5,854.6l-3-17.5l29.3-5l3,17.5L1278.5,854.6z M1351.6,842.1l-3-17.5l29.3-5l3,17.5
		L1351.6,842.1z M1424.7,829.7l-3-17.5l29.3-5.1l3,17.5L1424.7,829.7z M1497.8,817.1l-3-17.5l29.3-5.1l3,17.5L1497.8,817.1z
		 M1571,804.6l-3-17.5l29.3-5.1l3,17.5L1571,804.6z M1644.3,792l-3-17.5l29.3-5.1l3,17.5L1644.3,792z M1717.7,779.4l-3-17.5
		l20.6-3.6l10.3,8c0.6,8.1-6.4,9.4-12.6,10.4L1717.7,779.4z"/>
</g>
<g>
	<path class="st1" d="M1051.7,2293.8l-9.4-15.1l25.1-15.7l9.4,15.1L1051.7,2293.8z M1114.5,2254.6l-9.4-15.1l25.1-15.7l9.4,15.1
		L1114.5,2254.6z M1177.2,2215.4l-9.4-15.1l25.1-15.7l9.4,15.1L1177.2,2215.4z M1240,2176.1l-9.4-15.1l25.1-15.7l9.4,15.1
		L1240,2176.1z M1302.8,2136.9l-9.4-15.1l25.1-15.7l9.4,15.1L1302.8,2136.9z M1365.5,2097.7l-9.4-15.1l25.1-15.7l9.4,15.1
		L1365.5,2097.7z M1428.3,2058.6l-9.4-15.1l25.1-15.7l9.4,15.1L1428.3,2058.6z M1491.2,2019.4l-9.4-15.1l25.1-15.7l9.4,15.1
		L1491.2,2019.4z M1553.9,1980.1l-9.4-15.1l25.1-15.7l9.4,15.1L1553.9,1980.1z M1616.7,1940.9l-9.4-15.1l25.1-15.7l9.4,15.1
		L1616.7,1940.9z M1679.5,1901.7l-9.4-15.1l25.1-15.7l9.4,15.1L1679.5,1901.7z M1742.2,1862.5l-9.4-15.1l25.1-15.7l9.4,15.1
		L1742.2,1862.5z M1805,1823.3l-9.4-15.1l25.1-15.7l9.4,15.1L1805,1823.3z M1867.7,1784l-9.4-15.1l25.1-15.7l9.4,15.1L1867.7,1784z
		 M1930.5,1744.8l-9.4-15.1l25.1-15.7l9.4,15.1L1930.5,1744.8z M1993.3,1705.7l-9.4-15.1l25.1-15.7l9.4,15.1L1993.3,1705.7z
		 M2056,1666.5l-9.4-15.1l25.1-15.7l9.4,15.1L2056,1666.5z M2118.9,1627.3l-9.4-15.1l25.1-15.7l9.4,15.1L2118.9,1627.3z
		 M2181.7,1588l-9.4-15.1l25.1-15.7l9.4,15.1L2181.7,1588z M2244.4,1548.8l-9.4-15.1l25.1-15.7l9.4,15.1L2244.4,1548.8z
		 M2307.2,1509.6l-9.4-15.1l25.1-15.7l9.4,15.1L2307.2,1509.6z M2370,1470.4l-9.4-15.1l25.1-15.7l9.4,15.1L2370,1470.4z
		 M2432.7,1431.2l-9.4-15.1l25.1-15.7l9.4,15.1L2432.7,1431.2z M2495.5,1391.9l-9.4-15.1l25.1-15.7l9.4,15.1L2495.5,1391.9z
		 M2558.3,1352.8l-9.4-15.1l25.1-15.7l9.4,15.1L2558.3,1352.8z M2621,1313.6l-9.4-15.1l25.1-15.7l9.4,15.1L2621,1313.6z
		 M2683.9,1274.4l-9.4-15.1l25.1-15.7l9.4,15.1L2683.9,1274.4z M2746.7,1235.2l-9.4-15.1l25.1-15.7l9.4,15.1L2746.7,1235.2z
		 M2809.4,1195.9l-9.4-15.1l25.1-15.7l9.4,15.1L2809.4,1195.9z M2872.2,1156.7l-9.4-15.1l25.1-15.7l9.4,15.1L2872.2,1156.7z
		 M2935,1117.5l-9.4-15.1l25.1-15.7l9.4,15.1L2935,1117.5z M2997.7,1078.3l-9.4-15.1l25.1-15.7l9.4,15.1L2997.7,1078.3z
		 M3060.5,1039.2l-9.4-15.1l25.1-15.7l9.4,15.1L3060.5,1039.2z M3123.3,999.9l-9.4-15.1l25.1-15.7l9.4,15.1L3123.3,999.9z
		 M3186,960.7l-9.4-15.1l25.1-15.7l9.4,15.1L3186,960.7z M3248.9,921.5l-9.4-15.1l25.1-15.7l9.4,15.1L3248.9,921.5z M3311.7,882.3
		l-9.4-15.1l25.1-15.7l9.4,15.1L3311.7,882.3z M3374.4,843.1L3365,828l25.1-15.7l9.4,15.1L3374.4,843.1z M3437.2,803.8l-9.4-15.1
		l25.1-15.7l9.4,15.1L3437.2,803.8z M3499.9,764.6l-9.4-15.1l25.1-15.7l9.4,15.1L3499.9,764.6z M3562.7,725.4l-9.4-15.1l25.1-15.7
		l9.4,15.1L3562.7,725.4z M3625.5,686.3l-9.4-15.1l20.1-12.6l9.4,15.1L3625.5,686.3z"/>
</g>
<g>
	<g>
		<path class="st1" d="M1026.8,2087.2c164.4,0,297.7,133.3,297.7,297.7c0,164.4-133.3,297.7-297.7,297.7s-297.7-133.3-297.7-297.7
			C729.2,2220.4,862.4,2087.2,1026.8,2087.2z"/>
	</g>
	<g>
		<path class="st2" d="M1103.2,2481c-10.6-2.9-37.4-10.7-49.5-4.5c-46.7,96.2-13.1,166.8,37.9,198.8c19.4-4.3,38.1-10.4,55.9-18.4
			c3.6-21.9,15.8-42.7-22.7-101C1111.5,2533.7,1105.2,2508.2,1103.2,2481z"/>
	</g>
	<g>
		<path class="st3" d="M1026.8,2682.4c37.7,0,73.6-7,106.8-19.7c-21.4-24.4-46.1-48.7-69.3-79.1l-103.1-5.5
			c-36.1,13.6-61.1,39.1-78.4,67.2C925.4,2669,974.6,2682.4,1026.8,2682.4z"/>
	</g>
	<g>
		<path class="st4" d="M1142.9,2408.3c4.8-3.1,19.9-6.9,18.4-21.7c-6.6-12.2-18.5-34.9-22.1-62c-3.1-39.3-19.3-54.5-22.7-61.5
			c-147.9,35.7-180.6,205.4-155.3,318.2c43.7,26.8,72.3,24.1,103.1,2.4l-0.3-102.3l46,9.4c26.9-0.8,35.1-16.1,34-33.8L1142.9,2408.3
			z"/>
	</g>
	<g>
		<path class="st2" d="M902.6,2318.3c2.3,36.1-6.4,60.7-38.3,83.5c-44.2,23.6-37,53.1-36.6,71.5c5.2,51.4-9.2,63.9-33.9,81.3
			c-2.8,1.4-5.5,3-8,4.6c36.5,50.3,88.3,88.7,148.5,108.4c-7.1-28.7-14.7-58.5,30-87.7c40.9-34.6,33.7-75.3,29.6-128.1
			c-5.1-47.9,14.1-74.6,52.6-84.3c51.7-15.7,63.1-50,73.1-100.8C1058.7,2170.3,904.6,2217.9,902.6,2318.3z"/>
	</g>
	<g>
		<path class="st5" d="M1165.9,2204.4l-59.9,29.4l-16.6-34.1c-7.9-16.4-22.1-29.7-40.5-36.1c-18.5-6.5-37.9-4.7-54.2,3.1l-75.9,36.7
			c-17.9,8.6-32.4,24.1-39.4,44.2c-7,20.2-5.2,41.3,3.4,59.2l14.3,29.5l-58.9,28.9l12.1,24.5l327.7-160.8L1165.9,2204.4z"/>
	</g>
</g>
<g>
	<path class="st1" d="M4547.6,2561.5l-11.2-27.3l16.5-6.8l11.2,27.3L4547.6,2561.5z M4519.5,2493.1l-11.2-27.3l16.5-6.8l11.2,27.3
		L4519.5,2493.1z M4491.4,2424.6l-11.2-27.3l16.5-6.8l11.2,27.3L4491.4,2424.6z M4463.3,2356.1l-11.2-27.3l16.5-6.8l11.2,27.3
		L4463.3,2356.1z M4435.2,2287.7l-11.2-27.3l16.5-6.8l11.2,27.3L4435.2,2287.7z M4407.1,2219.2l-11.2-27.3l16.5-6.8l11.2,27.3
		L4407.1,2219.2z M4379,2150.7l-11.2-27.3l16.5-6.8l11.2,27.3L4379,2150.7z M4350.9,2082.2l-11.2-27.3l16.5-6.8l11.2,27.3
		L4350.9,2082.2z M4322.8,2013.8l-11.2-27.3l16.5-6.8l11.2,27.3L4322.8,2013.8z M4294.7,1945.3l-11.2-27.3l16.5-6.8l11.2,27.3
		L4294.7,1945.3z M4266.6,1876.8l-11.2-27.3l16.5-6.8l11.2,27.3L4266.6,1876.8z M4238.5,1808.4l-11.2-27.3l16.5-6.8l11.2,27.3
		L4238.5,1808.4z M4210.4,1739.8l-11.2-27.3l16.5-6.8l11.2,27.3L4210.4,1739.8z M4182.3,1671.3l-11.2-27.3l16.5-6.8l11.2,27.3
		L4182.3,1671.3z M4154.2,1602.8l-11.2-27.3l16.5-6.8l11.2,27.3L4154.2,1602.8z M4126.1,1534.4l-11.2-27.3l16.5-6.8l11.2,27.3
		L4126.1,1534.4z M4098,1465.9l-11.2-27.3l16.5-6.8l11.2,27.3L4098,1465.9z M4069.9,1397.4l-11.2-27.3l16.5-6.8l11.2,27.3
		L4069.9,1397.4z M4041.8,1329l-11.2-27.3l16.5-6.8l11.2,27.3L4041.8,1329z M4013.7,1260.5l-11.2-27.3l16.5-6.8l11.2,27.3
		L4013.7,1260.5z M3985.6,1192l-11.2-27.3l16.5-6.8l11.2,27.3L3985.6,1192z M3957.5,1123.6l-11.2-27.3l16.5-6.8l11.2,27.3
		L3957.5,1123.6z M3929.4,1055.1l-11.2-27.3l16.5-6.8l11.2,27.3L3929.4,1055.1z M3901.3,986.6l-11.2-27.3l16.5-6.8l11.2,27.3
		L3901.3,986.6z M3873.2,918.1l-11.2-27.3l16.5-6.8l11.2,27.3L3873.2,918.1z M3845.1,849.7l-11.2-27.3l16.5-6.8l11.2,27.3
		L3845.1,849.7z M3817,781.2l-11.2-27.3l16.5-6.8l11.2,27.3L3817,781.2z M3788.9,712.7l-11.2-27.3l16.5-6.8l11.2,27.3L3788.9,712.7z
		"/>
</g>
<g>
	<path class="st1" d="M3297,1991l-23.3-18.3l11-14l23.3,18.3L3297,1991z M3238.9,1945.1l-23.3-18.3l11-14l23.3,18.3L3238.9,1945.1z
		 M3180.7,1899.3l-23.3-18.3l11-14l23.3,18.3L3180.7,1899.3z M3122.5,1853.6l-23.3-18.3l11-14l23.3,18.3L3122.5,1853.6z
		 M3064.4,1807.8l-23.3-18.3l11-14l23.3,18.3L3064.4,1807.8z M3006.2,1762.1l-23.3-18.3l11-14l23.3,18.3L3006.2,1762.1z
		 M2948,1716.3l-23.3-18.3l11-14l23.3,18.3L2948,1716.3z M2889.8,1670.6l-23.3-18.3l11-14l23.3,18.3L2889.8,1670.6z M2831.7,1624.8
		l-23.3-18.3l11-14l23.3,18.3L2831.7,1624.8z M2773.5,1579.1l-23.3-18.3l11-14l23.3,18.3L2773.5,1579.1z M2715.3,1533.3l-23.3-18.3
		l11-14l23.3,18.3L2715.3,1533.3z M2657.2,1487.5l-23.3-18.3l11-14l23.3,18.3L2657.2,1487.5z M2599,1441.8l-23.3-18.3l11-14
		l23.3,18.3L2599,1441.8z M2540.8,1396l-23.3-18.3l11-14l23.3,18.3L2540.8,1396z M2482.7,1350.2l-23.3-18.3l11-14l23.3,18.3
		L2482.7,1350.2z M2424.4,1304.4l-23.3-18.3l11-14l23.3,18.3L2424.4,1304.4z M2366.3,1258.7l-23.3-18.3l11-14l23.3,18.3
		L2366.3,1258.7z M2308.2,1212.9l-23.3-18.3l11-14l23.3,18.3L2308.2,1212.9z M2249.9,1167.2l-23.3-18.3l11-14l23.3,18.3
		L2249.9,1167.2z M2191.8,1121.4l-23.3-18.3l11-14l23.3,18.3L2191.8,1121.4z M2133.7,1075.6l-23.3-18.3l11-14l23.3,18.3
		L2133.7,1075.6z M2075.4,1029.9l-23.3-18.3l11-14l23.3,18.3L2075.4,1029.9z M2017.3,984.1l-23.3-18.3l11-14l23.3,18.3L2017.3,984.1
		z M1959.2,938.4l-23.3-18.3l11-14l23.3,18.3L1959.2,938.4z M1900.9,892.6l-23.3-18.3l11-14l23.3,18.3L1900.9,892.6z"/>
</g>
<g>
	<path class="st1" d="M1919.5,817.7l-2.6-17.5l29.3-4.3l2.6,17.5L1919.5,817.7z M1992.7,806.8l-2.6-17.5l29.3-4.3l2.6,17.5
		L1992.7,806.8z M2065.9,796.1l-2.6-17.5l29.3-4.3l2.6,17.5L2065.9,796.1z M2139.2,785.3l-2.6-17.5l29.3-4.3l2.6,17.5L2139.2,785.3z
		 M2212.5,774.4l-2.6-17.5l29.3-4.3l2.6,17.5L2212.5,774.4z M2285.7,763.7l-2.6-17.5l29.3-4.3l2.6,17.5L2285.7,763.7z M2358.9,752.9
		l-2.6-17.5l29.3-4.3l2.6,17.5L2358.9,752.9z M2432.1,742.1l-2.6-17.5l29.3-4.3l2.6,17.5L2432.1,742.1z M2505.3,731.3l-2.6-17.5
		l29.3-4.3l2.6,17.5L2505.3,731.3z M2578.5,720.5l-2.6-17.5l29.3-4.3l2.6,17.5L2578.5,720.5z M2651.8,709.7l-2.6-17.5l29.3-4.3
		l2.6,17.5L2651.8,709.7z M2725,699l-2.6-17.5l29.3-4.3l2.6,17.5L2725,699z M2798.2,688.1l-2.6-17.5l29.3-4.3l2.6,17.5L2798.2,688.1
		z M2871.4,677.3l-2.6-17.5l29.3-4.3l2.6,17.5L2871.4,677.3z M2944.6,666.5l-2.6-17.5l29.3-4.3l2.6,17.5L2944.6,666.5z
		 M3017.9,655.7l-2.6-17.5l29.3-4.3l2.6,17.5L3017.9,655.7z M3091.1,644.9l-2.6-17.5l29.3-4.3l2.6,17.5L3091.1,644.9z M3164.4,634.1
		l-2.6-17.5l29.3-4.3l2.6,17.5L3164.4,634.1z M3237.6,623.4l-2.6-17.5l29.3-4.3l2.6,17.5L3237.6,623.4z M3310.8,612.5l-2.6-17.5
		l29.3-4.3l2.6,17.5L3310.8,612.5z M3384,601.7l-2.6-17.5l29.3-4.3l2.6,17.5L3384,601.7z M3457.2,591l-2.6-17.5l29.3-4.3l2.6,17.5
		L3457.2,591z M3530.4,580.1l-2.6-17.5l29.3-4.3l2.6,17.5L3530.4,580.1z M3603.6,569.3l-2.6-17.5l29.3-4.3l2.6,17.5L3603.6,569.3z
		 M3676.9,558.6l-2.6-17.5l29.3-4.3l2.6,17.5L3676.9,558.6z"/>
</g>
<g>
	<g>
		<path class="st1" d="M1827.7,481.1c164.4,0,297.7,133.3,297.7,297.7s-133.3,297.7-297.7,297.7S1530,943.1,1530,778.7
			C1530.1,614.3,1663.3,481.1,1827.7,481.1z"/>
	</g>
	<g>
		<path class="st5" d="M1908.1,945.1h-316.4c-3.4,0-6.9,0.3-10.2,0.4c53.5,78.7,143.8,130.6,246.3,130.6
			c64.6,0,124.3-20.8,173.1-55.8C1997.5,978,1957.2,945.1,1908.1,945.1z"/>
	</g>
	<g>
		<path class="st6" d="M1703.2,634.3c0,17.1-13.9,31-31,31s-31-13.9-31-31c0-17.1,13.9-31,31-31S1703.2,617.1,1703.2,634.3z"/>
	</g>
	<g>
		<path class="st6" d="M1907.5,639.6c11.6-118.9-217.7-122.1-214.5,13.8v147C1799.6,804.9,1876.7,765.2,1907.5,639.6z"/>
	</g>
	<g>
		<path class="st4" d="M1953.4,746c-13.3-37.4-33.4-81.9-43.9-105.6h-72.1c-6.8,0-13.2,0.6-18.4,5.8c-5.2,5.2-7.5,9.9-7.5,16.7v77.2
			l-38.8,0.1v-33.1c0-10.3-5.7-22.6-16.1-22.6h-1.4c-10.3,0-20.1,12.3-20.1,22.6v33.1v5.8v51.6h-39.7l-1.7,149.6
			c44.6,47.9,113.8,46.6,158.1,0l0.2-83.9c48,6.7,64.6-18.1,67.7-35.7l0.2-45.6c-1.5-9.9,9.6-13.2,20.1-15.8
			C1954.2,764.7,1955.7,755.3,1953.4,746z"/>
	</g>
	<g>
		<path class="st7" d="M1918.9,779.3h-89.5c-5,0-9.3-2.5-13-6.2c-3.8-3.8-5.1-9.4-5.1-14.2v-18.3h-38.8V837
			c0,8.5,4.5,17.3,11.1,23.8c6.5,6.5,16.4,10,24.9,10h66.1c11.5,0,23-4.6,31.8-13.5c8.8-8.8,12.8-20.1,12.8-31.7L1918.9,779.3z"/>
	</g>
</g>
<g>
	<path class="st1" d="M4542.5,2672.4l-26.3-13.6l8.2-15.8l26.3,13.6L4542.5,2672.4z M4476.8,2638.4l-26.3-13.6l8.2-15.8l26.3,13.6
		L4476.8,2638.4z M4411,2604.4l-26.3-13.6l8.2-15.8l26.3,13.6L4411,2604.4z M4345.4,2570.4l-26.3-13.6l8.2-15.8l26.3,13.6
		L4345.4,2570.4z M4279.6,2536.3l-26.3-13.6l8.2-15.8l26.3,13.6L4279.6,2536.3z M4213.8,2502.3l-26.3-13.6l8.2-15.8l26.3,13.6
		L4213.8,2502.3z M4148.1,2468.3l-26.3-13.6l8.2-15.8l26.3,13.6L4148.1,2468.3z M4082.4,2434.3l-26.3-13.6l8.2-15.8l26.3,13.6
		L4082.4,2434.3z M4016.7,2400.3l-26.3-13.6l8.2-15.8l26.3,13.6L4016.7,2400.3z M3950.9,2366.2l-26.3-13.6l8.2-15.8l26.3,13.6
		L3950.9,2366.2z M3885.1,2332.2l-26.3-13.6l8.2-15.8l26.3,13.6L3885.1,2332.2z M3819.5,2298.2l-26.3-13.6l8.2-15.8l26.3,13.6
		L3819.5,2298.2z M3753.7,2264.2l-26.3-13.6l8.2-15.8l26.3,13.6L3753.7,2264.2z M3688,2230.2l-26.3-13.6l8.2-15.8l26.3,13.6
		L3688,2230.2z M3622.2,2196.1l-26.3-13.6l8.2-15.8l26.3,13.6L3622.2,2196.1z M3556.6,2162.1l-26.3-13.6l8.2-15.8l26.3,13.6
		L3556.6,2162.1z"/>
</g>
<g>
	<g>
		<path class="st1" d="M3477.1,1873.8c164.4,0,297.7,133.3,297.7,297.7s-133.3,297.7-297.7,297.7c-164.4,0-297.7-133.3-297.7-297.7
			S3312.7,1873.8,3477.1,1873.8z"/>
	</g>
	<g>
		<path class="st8" d="M3350.5,2215.4h-1.1c-4.1,0-26.8,1.1-22.8-18c4.8-22.5,25.2-88.8,37-111.4c56,1.4,137.4,113.4,145,172.7
			l29.7,119.9c-41.9,15.4-84.1,17.8-121.8,0v-77.7l-36.7,0.1c-19.9,0.8-34.5-13.5-32.6-29.3L3350.5,2215.4z"/>
	</g>
	<g>
		<path class="st6" d="M3409.1,1983.3c11.1-2.8,22.2-1.9,32.2,1.7c5.4-22.3,22.5-40.9,46.3-46.9c33.1-8.4,66.5,10.8,76.4,42.8
			c1.4-0.5,2.8-1,4.3-1.4c20.9-5.3,42,7.3,47.3,28.2c2.7,10.6,0.8,21.1-4.4,29.7c24.7-1.9,47.9,14.1,54.3,39
			c6.1,24.3-5.9,49-27.7,59.4c3.9,5.3,6.9,11.4,8.6,18.2c7,27.8-9.8,56-37.6,63.1c-9.5,2.4-18.9,2-27.6-0.5
			c-12.5-3.8-205.1-142.4-211.3-167.3C3362.5,2020.2,3380,1990.7,3409.1,1983.3z"/>
	</g>
	<g>
		<path class="st9" d="M3344.5,2051.8c-3.9-15.8,1.4-33.1,13.7-49.5c19.7,15.6,30,36.2,23.4,58.7c87.8,30.1,152.6,84.7,199.7,155.5
			c-6.4,42.7-70.2,48.4-73.1,41.3c-18.5-69.4-78.7-119.8-145.2-171.8c-32.4,11.9-56.5-3.9-69.7-35
			C3311.7,2043.9,3329.7,2043.4,3344.5,2051.8z"/>
	</g>
	<g>
		<path class="st3" d="M3462.7,2227.4c0,12.4,10,35.7,22.5,35.7c12.4,0,22.5-23.4,22.5-35.7s-10-14.3-22.5-14.3
			S3462.7,2214.9,3462.7,2227.4z"/>
	</g>
	<g>
		<path class="st3" d="M3362.9,2446.3c35.2,14.6,73.7,22.7,114.2,22.7c47.7,0,92.7-11.2,132.6-31.1c-14.9-31.2-38.9-57.4-74.3-61.8
			c-44.9,15.6-85.7,15.2-122.7,0L3362.9,2446.3z"/>
	</g>
</g>
<g>
	<path class="st1" d="M5024.5,1318l-24.5-16.6l9.9-14.7l24.5,16.6L5024.5,1318z M4963.1,1276.5l-24.5-16.6l9.9-14.7l24.5,16.6
		L4963.1,1276.5z M4901.8,1235.2l-24.5-16.6l9.9-14.7l24.5,16.6L4901.8,1235.2z M4840.4,1193.7l-24.5-16.6l9.9-14.7l24.5,16.6
		L4840.4,1193.7z M4779,1152.3l-24.5-16.6l9.9-14.7l24.5,16.6L4779,1152.3z M4717.7,1111l-24.5-16.6l9.9-14.7l24.5,16.6L4717.7,1111
		z M4656.3,1069.5l-24.5-16.6l9.9-14.7l24.5,16.6L4656.3,1069.5z M4594.9,1028.2l-24.5-16.6l9.9-14.7l24.5,16.6L4594.9,1028.2z
		 M4533.7,986.7l-24.5-16.6l9.9-14.7l24.5,16.6L4533.7,986.7z M4472.3,945.3l-24.5-16.6l9.9-14.7l24.5,16.6L4472.3,945.3z
		 M4410.9,903.9l-24.5-16.6l9.9-14.7l24.5,16.6L4410.9,903.9z M4349.6,862.5l-24.5-16.6l9.9-14.7l24.5,16.6L4349.6,862.5z
		 M4288.2,821.1l-24.5-16.6l9.9-14.7l24.5,16.6L4288.2,821.1z M4226.8,779.7l-24.5-16.6l9.9-14.7l24.5,16.6L4226.8,779.7z
		 M4165.5,738.4l-24.5-16.6l9.9-14.7l24.5,16.6L4165.5,738.4z M4104.1,696.9l-24.5-16.6l9.9-14.7l24.5,16.6L4104.1,696.9z
		 M4042.9,655.5l-24.5-16.6l9.9-14.7l24.5,16.6L4042.9,655.5z M3981.5,614.1l-24.5-16.6l9.9-14.7l24.5,16.6L3981.5,614.1z
		 M3920.1,572.7l-24.5-16.6l9.9-14.7l24.5,16.6L3920.1,572.7z M3858.8,531.3l-24.5-16.6l9.9-14.7l24.5,16.6L3858.8,531.3z
		 M3797.4,489.9l-24.5-16.6l9.9-14.7l24.5,16.6L3797.4,489.9z M3736,448.4l-24.5-16.6l9.9-14.7l24.5,16.6L3736,448.4z"/>
</g>
<g>
	<path class="st1" d="M4587.3,2622.6l-16.1-7.3l12.2-27l16.1,7.3L4587.3,2622.6z M4617.8,2555.2l-16.1-7.3l12.2-27l16.1,7.3
		L4617.8,2555.2z M4648.1,2487.7l-16.1-7.3l12.2-27l16.1,7.3L4648.1,2487.7z M4678.5,2420.2l-16.1-7.3l12.2-27l16.1,7.3
		L4678.5,2420.2z M4708.8,2352.7l-16.1-7.3l12.2-27l16.1,7.3L4708.8,2352.7z M4739.3,2285.2l-16.1-7.3l12.2-27l16.1,7.3
		L4739.3,2285.2z M4769.7,2217.7l-16.1-7.3l12.2-27l16.1,7.3L4769.7,2217.7z M4800,2150.2l-16.1-7.3l12.2-27l16.1,7.3L4800,2150.2z
		 M4830.4,2082.7l-16.1-7.3l12.2-27l16.1,7.3L4830.4,2082.7z M4860.8,2015.2l-16.1-7.3l12.2-27l16.1,7.3L4860.8,2015.2z
		 M4891.2,1947.8l-16.1-7.3l12.2-27l16.1,7.3L4891.2,1947.8z M4921.6,1880.3l-16.1-7.3l12.2-27l16.1,7.3L4921.6,1880.3z
		 M4951.9,1812.8l-16.1-7.3l12.2-27l16.1,7.3L4951.9,1812.8z M4982.4,1745.3l-16.1-7.3l12.2-27l16.1,7.3L4982.4,1745.3z
		 M5012.7,1677.8l-16.1-7.3l12.2-27l16.1,7.3L5012.7,1677.8z M5043.1,1610.3l-16.1-7.3l12.2-27l16.1,7.3L5043.1,1610.3z
		 M5073.5,1542.8l-16.1-7.3l12.2-27l16.1,7.3L5073.5,1542.8z M5103.9,1475.3l-16.1-7.3l10.8-23.9l16.1,7.3L5103.9,1475.3z"/>
</g>
<g>
	<g>
		<path class="st1" d="M5340.8,1364.7c0,164.4-133.3,297.7-297.7,297.7c-164.4,0-297.7-133.3-297.7-297.7s133.3-297.7,297.7-297.7
			C5207.5,1067.1,5340.8,1200.3,5340.8,1364.7z"/>
	</g>
	<g>
		<path class="st5" d="M5043.1,1663.1c91.4,0,173.2-46.3,227.8-105.5h-341.7c-32.2,0-61,13.1-80,33.9
			C4901.3,1636.3,4969,1663.1,5043.1,1663.1z"/>
	</g>
	<g>
		<path class="st2" d="M5162.8,1244.3v151.8c-133.5,36.8-202.2-24.8-220.8-151.8H5162.8z"/>
	</g>
	<g>
		<path class="st4" d="M5062.2,1294.8L5062.2,1294.8v-0.2C5062.2,1294.7,5062.2,1294.8,5062.2,1294.8z"/>
	</g>
	<g>
		<path class="st4" d="M4896.9,1353c4.3-42,29.1-91.4,46.2-108.6h75.8c7.1,0,14.7-1.7,20.1,3.7c5.4,5.4,8.6,8.1,8.6,15.2v81.1
			l38.8,0.1v-33.3c0-10.9,5.8-27.9,16.7-27.9h1.1c10.9,0,26.4,17,26.4,27.9v40c0,6.2-7.9,11.7-12.3,15.4l44.6,22.2v-42.1l2.7,209.7
			c-46.8,50.3-116.4,52.3-162.9,3.2l1.8-75.1c-49.8,5.5-69.9-32.6-69.9-58.9v-37.1c0-10.4-11.3-12.7-22.4-15.4
			C4897.2,1371.4,4894.5,1362.7,4896.9,1353z"/>
	</g>
	<g>
		<path class="st3" d="M4932.4,1253h230.4v-67.8c0-40.5-50.6-73.3-115.2-73.3c-64.6,0-115.2,32.8-115.2,73.3V1253z"/>
	</g>
	<g>
		<rect x="4851.7" y="1235.7" class="st5" width="311.1" height="17.2"/>
	</g>
	<g>
		<path class="st7" d="M5027.2,1391.8c5.2,0,10.4-0.5,14.4-4.4c4-4,6-7.6,6-12.8v-32.3h38.8v109.9c0,8.9-4.6,19.2-11.4,26.1
			c-6.8,6.8-16.9,11.5-25.8,11.5h-65.3c-12.1,0-25.1-5.9-34.3-15.2c-9.3-9.3-14.7-22.6-14.7-34.8v-48H5027.2z"/>
	</g>
</g>
<g>
	<g>
		<path class="st1" d="M3758.1,136.4c-164.4,0-297.7,133.3-297.7,297.7s133.3,297.7,297.7,297.7c164.4,0,297.7-133.3,297.7-297.7
			S3922.5,136.4,3758.1,136.4z"/>
	</g>
	<g>
		<path class="st2" d="M3636,383.7c-3.1-46.4,15.7-91.6,53.8-118.9c61-43.5,150-24.4,197.8,42.5c19.9,25.3,26.4,63.3,26.4,82.9
			v172.6h-263.8v-78.6C3650.2,484.3,3637.9,411.6,3636,383.7z"/>
	</g>
	<g>
		<path class="st2" d="M3835,253.1c0,20.5,16.6,37,36.9,37c20.5,0,36.9-16.6,36.9-37s-16.6-36.9-36.9-36.9S3835,232.8,3835,253.1z"
			/>
	</g>
	<g>
		<path class="st4" d="M3614.5,424.5c0.5,0,36.4-75.7,60.7-118.1l57.4,109.7l8.4,15.9c1.2-3.1,2.6-6.2,4-9
			c10.4-21.1,29.7-32.8,43.1-26.3s15.7,29.1,5.3,50.2c-5.5,12.2-16.3,25.1-27.5,32.5l43.4,134.9c-34.9,15.2-69.8,16.4-104.6,0
			l-9.3-87h-46c-5.4,0-10.7-2.5-14.7-6.6c-4.1-4.1-6.1-9.7-6.2-15l3.6-56.6C3632,443.5,3606.1,440.5,3614.5,424.5z"/>
	</g>
	<g>
		<path class="st10" d="M3630.6,397.3c-0.1,24.1,13.1,45,29.6,45h0.1c15.2,0,27.8-17.9,29.7-39.4l65.7,8.5l0.6-4.7l-65.9-9.4
			l-0.2,1.5c0-0.8,0-1.5,0-2.3c0.1-24.1-13.1-43.5-29.6-43.6C3644.2,352.9,3630.7,373.3,3630.6,397.3z M3635.5,396.3
			c0.1-21.5,11.3-36.2,25.2-36.2c14,0.1,22.5,16.7,22.4,38.3c-0.1,21.5-17.8,37.2-24.2,37.2v2.3l0.6-2.3
			C3645.6,435.5,3635.5,418,3635.5,396.3z"/>
	</g>
	<g>
		<path class="st9" d="M3758.1,731.7c-43.8,0-85.4-8.8-122.7-25.8l69-95.6H3809c40.3,9.7,70.6,48.1,91.3,86
			C3858,719.2,3809.6,731.7,3758.1,731.7z"/>
	</g>
</g>
<g>
	<g>
		<path class="st1" d="M4342.6,2647c0,164.4,133.3,297.7,297.7,297.7c164.4,0,297.7-133.3,297.7-297.7s-133.3-297.7-297.7-297.7
			C4475.8,2349.5,4342.6,2482.6,4342.6,2647z"/>
	</g>
	<g>
		<path class="st2" d="M4839.4,2812.9c15.6,0,30.4,1.9,43.9,6.1c-53.9,76.2-142.8,125.9-243.2,125.9c-92.5,0-175.1-41.8-229.6-108
			c18.7-15.2,43.7-24,71.1-24L4839.4,2812.9L4839.4,2812.9z"/>
	</g>
	<g>
		<path class="st2" d="M4531.1,2479.2"/>
	</g>
	<g>
		<path class="st3" d="M4766.6,2648.8v-121.2c0-23.3-9.5-44.7-27.2-62.4c-17.8-17.8-41.7-24.8-64.8-24.8h-109.5
			c-12.6,0-25.8,3-35.4,12.6c-9.6,9.6-15,20.5-15,33.1v7.9C4588.8,2595.8,4671.9,2639.6,4766.6,2648.8z"/>
	</g>
	<g>
		<path class="st4" d="M4476.1,2608.3c0.3-42.5,34.2-79.3,39.9-123.7h94.5c7.6,0,17.7-0.5,23.5,5.3c5.8,5.8,11.1,9.9,11.1,17.5v87.2
			l47.4-0.1v-38.6c0-12.8,3.8-23.9,15.3-23.9h0.8c11.5,0,19.5,11.1,19.5,23.9v43.5c0,1.1,0.8,2.2,0.6,3.2
			c1,16.6,14.5,16.7,36.7,16.3l0.5,195.7c-50.4,54.2-126.5,55.1-176.6,2.4c0,0-76.5-127.3-76.7-134.5l-0.2-40.2
			c0.3-11.3-1.5-14.5-12.9-17.3C4483.3,2623.2,4473.5,2618.7,4476.1,2608.3z"/>
	</g>
	<g>
		<path class="st3" d="M4489.9,2765.3l22.7-115h104.3c6.2,0,14.3-2.8,19.1-7.1c4.7-4.2,8.9-10.6,8.9-16v-39.3h47.4v116.4
			c0,48.3-25.3,160.5-111.3,150C4524.1,2856.1,4482.6,2803.1,4489.9,2765.3z"/>
	</g>
</g>
<g>
	<circle class="st1" cx="1258.1" cy="1794.7" r="17.8"/>
</g>
<g>
	<circle class="st1" cx="965" cy="663.9" r="17.8"/>
</g>
<g>
	<circle class="st1" cx="725.2" cy="803" r="17.8"/>
</g>
<g>
	<circle class="st1" cx="660" cy="501" r="17.8"/>
</g>
<g>
	<circle class="st1" cx="1486.1" cy="1883.6" r="17.8"/>
</g>
<g>
	<circle class="st1" cx="1577.8" cy="2487.6" r="17.8"/>
</g>
<g>
	<circle class="st1" cx="1428.8" cy="2607.9" r="17.8"/>
</g>
<g>
	<circle class="st1" cx="3013.8" cy="1380.2" r="17.8"/>
</g>
<g>
	<circle class="st1" cx="3138" cy="1492.8" r="17.8"/>
</g>
<g>
	<circle class="st1" cx="3108.5" cy="1279.7" r="17.8"/>
</g>
<g>
	<circle class="st1" cx="719.3" cy="577.9" r="17.8"/>
</g>
<g>
	<circle class="st1" cx="1003.5" cy="471.4" r="17.8"/>
</g>
<g>
	<circle class="st1" cx="1172.2" cy="1981.3" r="17.8"/>
</g>
<g>
	<circle class="st1" cx="4671.7" cy="711.2" r="17.8"/>
</g>
<g>
	<circle class="st1" cx="4014.3" cy="924.4" r="17.8"/>
</g>
<g>
	<circle class="st1" cx="2930.9" cy="1999" r="17.8"/>
</g>
<g>
	<circle class="st1" cx="2850.9" cy="1472" r="17.8"/>
</g>
<g>
	<circle class="st1" cx="2841.9" cy="942" r="17.8"/>
</g>
<g>
	<circle class="st1" cx="2664.3" cy="841.5" r="17.8"/>
</g>
<g>
	<circle class="st1" cx="3087.7" cy="512.8" r="17.8"/>
</g>
<g>
	<circle class="st1" cx="3685.8" cy="1042.8" r="17.8"/>
</g>
<g>
	<circle class="st1" cx="3499.3" cy="959.9" r="17.8"/>
</g>
<g>
	<circle class="st1" cx="4414.1" cy="1211.5" r="17.8"/>
</g>
<g>
	<circle class="st1" cx="4562.1" cy="1460.2" r="17.8"/>
</g>
<g>
	<circle class="st1" cx="4212.7" cy="1267.8" r="17.8"/>
</g>
<g>
	<circle class="st1" cx="4612.5" cy="663.9" r="17.8"/>
</g>
<g>
	<circle class="st1" cx="4280.9" cy="506.9" r="17.8"/>
</g>
<g>
	<circle class="st1" cx="4408.1" cy="681.5" r="17.8"/>
</g>
<g>
	<circle class="st1" cx="4351.9" cy="1187.8" r="17.8"/>
</g>
<g>
	<circle class="st1" cx="5177.9" cy="2339.4" r="17.8"/>
</g>
<g>
	<circle class="st1" cx="4988.4" cy="2303.9" r="17.8"/>
</g>
<g>
	<circle class="st1" cx="5059.5" cy="2407.6" r="17.8"/>
</g>
<g>
	<path class="st1" d="M1428.8,2660c-28.7,0-52.1-23.4-52.1-52.1c0-28.7,23.4-52.1,52.1-52.1c28.7,0,52.1,23.4,52.1,52.1
		C1480.9,2636.7,1457.6,2660,1428.8,2660z M1428.8,2564.7c-23.9,0-43.3,19.4-43.3,43.3s19.4,43.3,43.3,43.3s43.3-19.4,43.3-43.3
		S1452.6,2564.7,1428.8,2564.7z"/>
</g>
<g>
	<circle class="st1" cx="1816.6" cy="2143.1" r="17.8"/>
</g>
<g>
	<path class="st1" d="M1816.6,2195.3c-28.7,0-52.1-23.4-52.1-52.1s23.4-52.1,52.1-52.1c28.7,0,52.1,23.4,52.1,52.1
		C1868.8,2171.8,1845.4,2195.3,1816.6,2195.3z M1816.6,2099.9c-23.9,0-43.3,19.4-43.3,43.3s19.4,43.3,43.3,43.3s43.3-19.4,43.3-43.3
		S1840.5,2099.9,1816.6,2099.9z"/>
</g>
<g>
	<circle class="st1" cx="878.2" cy="1331.9" r="17.8"/>
</g>
<g>
	<path class="st1" d="M878.2,1384.1c-28.7,0-52.1-23.4-52.1-52.1c0-28.7,23.4-52.1,52.1-52.1c28.7,0,52.1,23.4,52.1,52.1
		C930.3,1360.6,906.9,1384.1,878.2,1384.1z M878.2,1288.7c-23.9,0-43.3,19.4-43.3,43.3s19.4,43.3,43.3,43.3
		c23.9,0,43.3-19.4,43.3-43.3C921.4,1308.1,902,1288.7,878.2,1288.7z"/>
</g>
<g>
	<circle class="st1" cx="1147.5" cy="713.2" r="17.8"/>
</g>
<g>
	<path class="st1" d="M1147.5,765.3c-28.7,0-52.1-23.4-52.1-52.1c0-28.7,23.4-52.1,52.1-52.1c28.7,0,52.1,23.4,52.1,52.1
		C1199.7,741.9,1176.3,765.3,1147.5,765.3z M1147.5,669.9c-23.9,0-43.3,19.4-43.3,43.3c0,23.9,19.4,43.3,43.3,43.3
		s43.3-19.4,43.3-43.3C1190.8,689.3,1171.4,669.9,1147.5,669.9z"/>
</g>
<g>
	<circle class="st1" cx="2465" cy="1562.8" r="17.8"/>
</g>
<g>
	<path class="st1" d="M2465,1615c-28.7,0-52.1-23.4-52.1-52.1c0-28.7,23.4-52.1,52.1-52.1c28.7,0,52.1,23.4,52.1,52.1
		C2517.1,1591.5,2493.8,1615,2465,1615z M2465,1519.6c-23.9,0-43.3,19.4-43.3,43.3s19.4,43.3,43.3,43.3s43.3-19.4,43.3-43.3
		S2488.8,1519.6,2465,1519.6z"/>
</g>
<g>
	<circle class="st1" cx="3071.9" cy="2350.3" r="17.8"/>
</g>
<g>
	<path class="st1" d="M3071.9,2402.5c-28.7,0-52.1-23.4-52.1-52.1c0-28.7,23.4-52.1,52.1-52.1c28.7,0,52.1,23.4,52.1,52.1
		C3124.1,2379.1,3100.6,2402.5,3071.9,2402.5z M3071.9,2307.1c-23.9,0-43.3,19.4-43.3,43.3s19.4,43.3,43.3,43.3s43.3-19.4,43.3-43.3
		S3095.8,2307.1,3071.9,2307.1z"/>
</g>
<g>
	<circle class="st1" cx="2633.7" cy="1175" r="17.8"/>
</g>
<g>
	<path class="st1" d="M2633.7,1227.1c-28.7,0-52.1-23.4-52.1-52.1c0-28.7,23.4-52.1,52.1-52.1c28.7,0,52.1,23.4,52.1,52.1
		C2685.9,1203.8,2662.5,1227.1,2633.7,1227.1z M2633.7,1131.7c-23.9,0-43.3,19.4-43.3,43.3s19.4,43.3,43.3,43.3s43.3-19.4,43.3-43.3
		S2657.6,1131.7,2633.7,1131.7z"/>
</g>
<g>
	<circle class="st1" cx="3459.8" cy="1065.4" r="17.8"/>
</g>
<g>
	<path class="st1" d="M3459.8,1117.6c-28.7,0-52.1-23.4-52.1-52.1c0-28.7,23.4-52.1,52.1-52.1s52.1,23.4,52.1,52.1
		C3511.9,1094.2,3488.5,1117.6,3459.8,1117.6z M3459.8,1022.2c-23.9,0-43.3,19.4-43.3,43.3s19.4,43.3,43.3,43.3s43.3-19.4,43.3-43.3
		S3483.6,1022.2,3459.8,1022.2z"/>
</g>
<g>
	<circle class="st1" cx="2947.6" cy="784.2" r="17.8"/>
</g>
<g>
	<path class="st1" d="M2947.6,836.3c-28.7,0-52.1-23.4-52.1-52.1s23.4-52.1,52.1-52.1c28.7,0,52.1,23.4,52.1,52.1
		C2999.8,813,2976.3,836.3,2947.6,836.3z M2947.6,740.9c-23.9,0-43.3,19.4-43.3,43.3s19.4,43.3,43.3,43.3s43.3-19.4,43.3-43.3
		S2971.5,740.9,2947.6,740.9z"/>
</g>
<g>
	<circle class="st1" cx="4229.5" cy="1133.6" r="17.8"/>
</g>
<g>
	<path class="st1" d="M4229.5,1185.7c-28.7,0-52.1-23.4-52.1-52.1c0-28.7,23.4-52.1,52.1-52.1c28.7,0,52.1,23.4,52.1,52.1
		S4258.3,1185.7,4229.5,1185.7z M4229.5,1090.3c-23.9,0-43.3,19.4-43.3,43.3s19.4,43.3,43.3,43.3c23.9,0,43.3-19.4,43.3-43.3
		C4272.8,1109.7,4253.3,1090.3,4229.5,1090.3z"/>
</g>
<g>
	<circle class="st1" cx="4626.3" cy="1260.8" r="17.8"/>
</g>
<g>
	<path class="st1" d="M4626.3,1313c-28.7,0-52.1-23.4-52.1-52.1c0-28.7,23.4-52.1,52.1-52.1c28.7,0,52.1,23.4,52.1,52.1
		C4678.4,1289.6,4655,1313,4626.3,1313z M4626.3,1217.6c-23.9,0-43.3,19.4-43.3,43.3s19.4,43.3,43.3,43.3
		c23.9,0,43.3-19.4,43.3-43.3C4669.5,1237,4650,1217.6,4626.3,1217.6z"/>
</g>
<g>
	<circle class="st1" cx="4617.3" cy="497" r="17.8"/>
</g>
<g>
	<path class="st1" d="M4617.3,549.2c-28.7,0-52.1-23.4-52.1-52.1c0-28.7,23.4-52.1,52.1-52.1c28.7,0,52.1,23.4,52.1,52.1
		C4669.5,525.7,4646.1,549.2,4617.3,549.2z M4617.3,453.8c-23.9,0-43.3,19.4-43.3,43.3c0,23.9,19.4,43.3,43.3,43.3
		c23.9,0,43.3-19.4,43.3-43.3C4660.6,473.2,4641.2,453.8,4617.3,453.8z"/>
</g>
<g>
	<circle class="st1" cx="5319" cy="2424.4" r="17.8"/>
</g>
<g>
	<path class="st1" d="M5319,2476.5c-28.7,0-52.1-23.4-52.1-52.1c0-28.7,23.4-52.1,52.1-52.1s52.1,23.4,52.1,52.1
		C5371.1,2453.1,5347.8,2476.5,5319,2476.5z M5319,2381.1c-23.9,0-43.3,19.4-43.3,43.3s19.4,43.3,43.3,43.3
		c23.9,0,43.3-19.4,43.3-43.3S5342.8,2381.1,5319,2381.1z"/>
</g>
<path class="st9" d="M157.1,1384.1c0.9-30.1,23.1-45.5,72.4-42l161.2,0.1c91.7-3.7,105.9,23.8,120.1,54.2
	c-51.3,35.7-114.6,56.2-197,52.3C252.2,1440.3,200.2,1418.5,157.1,1384.1z"/>
<g>
	<g>
		<path class="st2" d="M229.4,1206.9l1.5-166.4c0-13.3,0.8-28.6,9.6-40.2c8.8-11.4,20.3-19.1,33.4-22.5l103-27.6
			c44.1-9.3,57.2-33.7,64.8-61.7c71.2,42.1,105.4,109.6,9.2,134.7C429.7,1154.5,356.9,1217.2,229.4,1206.9"/>
	</g>
	<g>
		<path class="st4" d="M229.5,1202.4v139.7c60.8,21.2,113.5,18.3,161.2,0.1l0.3-84.7l45.8,13c6.6,0,13.2-3.1,18.3-8.1
			c5.1-5.1,7.5-11.9,7.6-18.5l-0.9-71.5c-2.4-15.6,25.3-15.7,35.5-20.1c-6.4-28.1-35.4-92-46.3-127.6h-75.1c-7,0-13.5,0.9-18.8,6.2
			c-5.4,5.4-7.4,10.7-7.4,17.7v88.5l-36,0.4c0.1-0.9,0.4-1.7,0.4-2.6v-40.5c0-10.8-10.4-15.9-21.2-15.9h-1.4
			c-10.8,0-19.3,5.2-19.3,15.9v40.5c0,7.1,3.2,13.2,6.5,16.7v50.7L229.5,1202.4L229.5,1202.4z"/>
	</g>
	<g>
		<path class="st7" d="M462.5,1245.3l-0.8-63.4h-94.3c-5.2,0-9.3-3.3-13.2-7.3c-3.9-3.9-4.8-10.4-4.8-15.6v-22l-35.5,0.3v96.6
			l124.1,37.2C453.6,1273.2,463.7,1257.4,462.5,1245.3z"/>
	</g>
</g>
</svg>
