<?xml version="1.0" encoding="utf-8"?>
<!-- Generator: Adobe Illustrator 22.1.0, SVG Export Plug-In . SVG Version: 6.00 Build 0)  -->
<svg version="1.1" id="Layer_1" xmlns="http://www.w3.org/2000/svg" xmlns:xlink="http://www.w3.org/1999/xlink" x="0px" y="0px"
	 viewBox="0 0 550 550" style="enable-background:new 0 0 550 550;" xml:space="preserve">
<style type="text/css">
	.st0{fill:none;}
	.st1{fill:#E4B428;}
	.st2{font-family:'GoboldBold';}
	.st3{font-size:200px;}
	.st4{fill:#F4F4F5;}
	.st5{fill:none;stroke:#B6902E;stroke-miterlimit:10;}
</style>
<g>
	<rect x="380.9" y="223.3" class="st0" width="63" height="184"/>
	<text transform="matrix(1 0 0 1 380.9023 393.4266)" class="st1 st2 st3">I</text>
</g>
<rect x="180.3" y="114.1" class="st0" width="194.6" height="201.2"/>
<text transform="matrix(1 0 0 1 180.3178 284.2318)" class="st1 st2 st3">W</text>
<path class="st4" d="M494,19H96c-27.6,0-50,22.4-50,50v49.7c0,5.5,4.5,10,10,10s10-4.5,10-10V69c0-16.5,13.5-30,30-30h14v327.3
	c0,5.5,4.5,10,10,10s10-4.5,10-10V39h354v392H96c-11.2,0-21.6,3.7-30,10V210c0-5.5-4.5-10-10-10s-10,4.5-10,10v271
	c0,27.6,22.4,50,50,50h398c5.5,0,10-4.5,10-10V29C504,23.5,499.5,19,494,19z M96,511c-16.5,0-30-13.5-30-30s13.5-30,30-30h388v20
	h-86.9c-5.5,0-10,4.5-10,10s4.5,10,10,10H484v20H96z"/>
<path class="st1" d="M56,178c2.6,0,5.2-1.1,7.1-2.9c1.9-1.9,2.9-4.4,2.9-7.1s-1.1-5.2-2.9-7.1S58.6,158,56,158s-5.2,1.1-7.1,2.9
	c-1.9,1.9-2.9,4.4-2.9,7.1s1.1,5.2,2.9,7.1C50.8,176.9,53.4,178,56,178z"/>
<path class="st1" d="M127.1,410.2c1.9-1.9,2.9-4.4,2.9-7.1c0-2.6-1.1-5.2-2.9-7.1c-1.9-1.9-4.4-2.9-7.1-2.9s-5.2,1.1-7.1,2.9
	c-1.9,1.9-2.9,4.4-2.9,7.1c0,2.6,1.1,5.2,2.9,7.1c1.9,1.9,4.4,2.9,7.1,2.9S125.2,412,127.1,410.2z"/>
<path class="st1" d="M359.6,471c-2.6,0-5.2,1.1-7.1,2.9c-1.9,1.9-2.9,4.4-2.9,7.1s1.1,5.2,2.9,7.1c1.9,1.9,4.4,2.9,7.1,2.9
	c2.6,0,5.2-1.1,7.1-2.9c1.9-1.9,2.9-4.4,2.9-7.1s-1.1-5.2-2.9-7.1C364.8,472.1,362.2,471,359.6,471z"/>
<rect x="159.6" y="95.7" class="st0" width="194.6" height="201.2"/>
<text transform="matrix(1 0 0 1 159.5877 265.8051)" class="st5 st2 st3">W</text>
<g>
	<rect x="364.2" y="204.9" class="st0" width="63" height="184"/>
	<text transform="matrix(1 0 0 1 364.2257 374.9998)" class="st5 st2 st3">I</text>
</g>
</svg>
