<?xml version="1.0" encoding="utf-8"?>
<!-- Generator: Adobe Illustrator 22.1.0, SVG Export Plug-In . SVG Version: 6.00 Build 0)  -->
<svg version="1.1" id="Layer_1" xmlns="http://www.w3.org/2000/svg" xmlns:xlink="http://www.w3.org/1999/xlink" x="0px" y="0px"
	 viewBox="0 0 15.9 17.9" style="enable-background:new 0 0 15.9 17.9;" xml:space="preserve">
<style type="text/css">
	.st0{fill:none;}
	.st1{fill:#E4B428;}
	.st2{font-family:'GoboldBold';}
	.st3{font-size:6.9869px;}
	.st4{fill:#DDDDDD;}
	.st5{fill:none;stroke:#B6902E;stroke-width:0.15;stroke-miterlimit:10;}
</style>
<g>
	<rect x="11.7" y="7.2" class="st0" width="2.2" height="6.4"/>
	<text transform="matrix(1 0 0 1 11.6731 13.0942)" class="st1 st2 st3">I</text>
</g>
<rect x="4.7" y="3.3" class="st0" width="6.8" height="7"/>
<text transform="matrix(1 0 0 1 4.6658 9.2797)" class="st1 st2 st3">W</text>
<path class="st4" d="M15.6,0H1.7C0.7,0,0,0.8,0,1.7v1.7c0,0.2,0.2,0.3,0.3,0.3s0.4,0,0.4-0.2V1.8c0-0.6,0.5-1,1-1h0.5v11.4
	c0,0.2,0.2,0.3,0.3,0.3s0.3-0.2,0.3-0.3V0.7h12.4v13.7H1.7c-0.4,0-0.8,0.1-1,0.4V6.7c0-0.2-0.2-0.3-0.3-0.3S0,6.5,0,6.7v9.5
	c0,1,0.8,1.7,1.7,1.7h13.9c0.2,0,0.3-0.2,0.3-0.3V0.4C16,0.2,15.8,0,15.6,0z M1.7,17.2c-0.6,0-1-0.5-1-1c0-0.6,0.5-1,1-1h13.6v0.7
	h-3c-0.2,0-0.3,0.2-0.3,0.3c0,0.2,0.2,0.3,0.3,0.3h3v0.7H1.7z"/>
<path class="st1" d="M0.3,5.6c0.1,0,0.2,0,0.2-0.1c0.1-0.1,0.2-0.2,0.2-0.3S0.7,5,0.6,5C0.5,4.9,0.4,4.9,0.3,4.9S0.1,4.9,0.1,5
	C0,5,0,5.1,0,5.2c0,0.1,0,0.2,0.1,0.2C0.1,5.5,0.2,5.6,0.3,5.6z"/>
<path class="st1" d="M2.8,13.7c0.1-0.1,0.1-0.2,0.1-0.2c0-0.1,0-0.2-0.1-0.2c-0.1-0.2-0.1-0.2-0.2-0.2s-0.2,0-0.2,0.1
	c-0.1,0.1-0.1,0.2-0.1,0.2c0,0.1,0,0.2,0.1,0.2c0.1,0.1,0.2,0.1,0.2,0.1C2.7,13.8,2.7,13.7,2.8,13.7z"/>
<path class="st1" d="M10.9,15.8c-0.1,0-0.2,0-0.2,0.1c-0.1,0.1-0.1,0.2-0.1,0.2c0,0.1,0,0.2,0.1,0.2c0.1,0.1,0.2,0.1,0.2,0.1
	c0.1,0,0.2,0,0.2-0.1c0.1-0.1,0.1-0.2,0.1-0.2c0-0.1,0-0.2-0.1-0.2C11.1,15.8,11,15.8,10.9,15.8z"/>
<rect x="3.9" y="2.7" class="st0" width="6.8" height="7"/>
<text transform="matrix(1 0 0 1 3.9416 8.6362)" class="st5 st2 st3">W</text>
<g>
	<rect x="11.1" y="6.5" class="st0" width="2.2" height="6.4"/>
	<text transform="matrix(1 0 0 1 11.0906 12.4506)" class="st5 st2 st3">I</text>
</g>
</svg>
